<svg width="165" height="44" viewBox="0 0 165 44" fill="none" xmlns="http://www.w3.org/2000/svg">
<path d="M17.604 43.672C14.2813 43.672 11.3693 42.776 8.868 40.984C6.36667 39.1547 4.40667 36.6347 2.988 33.424C1.60667 30.176 0.916 26.4053 0.916 22.112C0.916 17.7813 1.60667 14.0107 2.988 10.8C4.40667 7.58933 6.348 5.088 8.812 3.296C11.3133 1.504 14.2253 0.607998 17.548 0.607998C20.8707 0.607998 23.764 1.504 26.228 3.296C28.7293 5.088 30.6707 7.608 32.052 10.856C33.4707 14.0667 34.18 17.8187 34.18 22.112C34.18 26.4053 33.4893 30.176 32.108 33.424C30.7267 36.6347 28.7853 39.1547 26.284 40.984C23.82 42.776 20.9267 43.672 17.604 43.672ZM17.604 37.624C19.6573 37.624 21.4307 36.9893 22.924 35.72C24.4173 34.4507 25.5747 32.6587 26.396 30.344C27.2173 28.0293 27.628 25.2853 27.628 22.112C27.628 18.9387 27.2173 16.1947 26.396 13.88C25.5747 11.5653 24.4173 9.77333 22.924 8.504C21.4307 7.23466 19.6387 6.6 17.548 6.6C15.4947 6.6 13.7213 7.23466 12.228 8.504C10.7347 9.77333 9.57733 11.5653 8.756 13.88C7.93467 16.1947 7.524 18.9387 7.524 22.112C7.524 25.248 7.93467 27.992 8.756 30.344C9.57733 32.6587 10.7347 34.4507 12.228 35.72C13.7587 36.9893 15.5507 37.624 17.604 37.624ZM42.0819 43V35.72H48.5219V43H42.0819ZM69.744 43.672C67.5413 43.672 65.4693 43.28 63.528 42.496C61.5867 41.6747 59.9067 40.536 58.488 39.08C57.0693 37.624 56.0613 35.8693 55.464 33.816L61.008 31.688C61.7173 33.6667 62.8747 35.1787 64.48 36.224C66.0853 37.2693 67.84 37.792 69.744 37.792C71.312 37.792 72.6933 37.4373 73.888 36.728C75.0827 36.0187 76.016 35.048 76.688 33.816C77.3973 32.584 77.752 31.184 77.752 29.616C77.752 28.0107 77.3973 26.6107 76.688 25.416C76.016 24.184 75.0827 23.232 73.888 22.56C72.6933 21.8507 71.312 21.496 69.744 21.496C68.176 21.496 66.7387 21.8507 65.432 22.56C64.1253 23.2693 63.1733 24.2213 62.576 25.416L57.256 24.24L60.504 1.28H82.736V6.88H63.08L65.6 4.136L63.192 21.72L61.12 20.32C62.24 18.752 63.6027 17.6133 65.208 16.904C66.8133 16.1947 68.6427 15.84 70.696 15.84C73.4213 15.84 75.792 16.456 77.808 17.688C79.8613 18.8827 81.448 20.5253 82.568 22.616C83.7253 24.6693 84.304 27.0027 84.304 29.616C84.304 32.2667 83.6693 34.656 82.4 36.784C81.1307 38.912 79.3947 40.592 77.192 41.824C75.0267 43.056 72.544 43.672 69.744 43.672ZM105.557 43.672C102.234 43.672 99.3225 42.776 96.8211 40.984C94.3198 39.1547 92.3598 36.6347 90.9411 33.424C89.5598 30.176 88.8691 26.4053 88.8691 22.112C88.8691 17.7813 89.5598 14.0107 90.9411 10.8C92.3598 7.58933 94.3011 5.088 96.7651 3.296C99.2665 1.504 102.178 0.607998 105.501 0.607998C108.824 0.607998 111.717 1.504 114.181 3.296C116.682 5.088 118.624 7.608 120.005 10.856C121.424 14.0667 122.133 17.8187 122.133 22.112C122.133 26.4053 121.442 30.176 120.061 33.424C118.68 36.6347 116.738 39.1547 114.237 40.984C111.773 42.776 108.88 43.672 105.557 43.672ZM105.557 37.624C107.61 37.624 109.384 36.9893 110.877 35.72C112.37 34.4507 113.528 32.6587 114.349 30.344C115.17 28.0293 115.581 25.2853 115.581 22.112C115.581 18.9387 115.17 16.1947 114.349 13.88C113.528 11.5653 112.37 9.77333 110.877 8.504C109.384 7.23466 107.592 6.6 105.501 6.6C103.448 6.6 101.674 7.23466 100.181 8.504C98.6878 9.77333 97.5305 11.5653 96.7091 13.88C95.8878 16.1947 95.4771 18.9387 95.4771 22.112C95.4771 25.248 95.8878 27.992 96.7091 30.344C97.5305 32.6587 98.6878 34.4507 100.181 35.72C101.712 36.9893 103.504 37.624 105.557 37.624ZM148.571 43.672C145.883 43.672 143.4 43.1493 141.123 42.104C138.846 41.0213 136.867 39.528 135.187 37.624C133.507 35.6827 132.2 33.4053 131.267 30.792C130.334 28.1413 129.867 25.248 129.867 22.112C129.867 18.976 130.315 16.1013 131.211 13.488C132.144 10.8747 133.451 8.59733 135.131 6.656C136.811 4.71466 138.79 3.22133 141.067 2.176C143.382 1.13066 145.902 0.607998 148.627 0.607998C152.323 0.607998 155.571 1.57866 158.371 3.52C161.208 5.424 163.187 8.03733 164.307 11.36L158.427 13.712C157.606 11.4347 156.318 9.66133 154.563 8.392C152.846 7.12267 150.848 6.488 148.571 6.488C146.294 6.488 144.222 7.16 142.355 8.504C140.526 9.81066 139.07 11.64 137.987 13.992C136.904 16.344 136.363 19.0507 136.363 22.112C136.363 25.1733 136.886 27.8987 137.931 30.288C138.976 32.64 140.414 34.488 142.243 35.832C144.072 37.1387 146.163 37.792 148.515 37.792C150.83 37.792 152.846 37.1573 154.563 35.888C156.318 34.5813 157.606 32.808 158.427 30.568L164.307 32.92C163.56 35.1227 162.422 37.0267 160.891 38.632C159.36 40.2373 157.55 41.488 155.459 42.384C153.368 43.2427 151.072 43.672 148.571 43.672ZM125.107 28.384V24.072H150.083V28.384H125.107ZM125.107 20.152V15.784H150.083V20.152H125.107Z" fill="#1D1E25"/>
</svg>
