<svg width="110" height="40" viewBox="0 0 110 40" fill="none" xmlns="http://www.w3.org/2000/svg">
<rect x="0.5" y="0.5" width="109" height="39" rx="19.5" fill="white"/>
<rect x="0.5" y="0.5" width="109" height="39" rx="19.5" stroke="url(#paint0_linear_5_4417)"/>
<path d="M30 18L28 19M28 19L26 18M28 19V21.5M36 15L34 16M36 15L34 14M36 15V17.5M30 12L28 11L26 12M20 15L22 14M20 15L22 16M20 15V17.5M28 29L26 28M28 29L30 28M28 29V26.5M22 26L20 25V22.5M34 26L36 25V22.5" stroke="#111111" stroke-width="2" stroke-linecap="round" stroke-linejoin="round"/>
<path d="M48.176 27L52.448 15.08H54.304L58.576 27H56.896L55.92 24.2H50.832L49.856 27H48.176ZM51.328 22.76H55.424L53.152 16.216H53.6L51.328 22.76ZM60.078 27V15.08H61.646V27H60.078ZM67.0624 27V15.08H72.0704C72.785 15.08 73.3984 15.208 73.9104 15.464C74.433 15.72 74.833 16.0827 75.1104 16.552C75.3984 17.0107 75.5424 17.56 75.5424 18.2C75.5424 18.7867 75.3877 19.32 75.0784 19.8C74.7797 20.2693 74.337 20.6373 73.7504 20.904L73.7344 20.312C74.2464 20.504 74.6677 20.76 74.9984 21.08C75.3397 21.3893 75.5957 21.752 75.7664 22.168C75.937 22.5733 76.0224 23.0053 76.0224 23.464C76.0224 24.5627 75.6704 25.4267 74.9664 26.056C74.2624 26.6853 73.3024 27 72.0864 27H67.0624ZM68.6304 25.56H72.1504C72.8437 25.56 73.3984 25.3733 73.8144 25C74.2304 24.6267 74.4384 24.12 74.4384 23.48C74.4384 22.84 74.2304 22.3333 73.8144 21.96C73.3984 21.576 72.8437 21.384 72.1504 21.384H68.6304V25.56ZM68.6304 19.976H72.0384C72.6144 19.976 73.0784 19.8107 73.4304 19.48C73.7824 19.1387 73.9584 18.7067 73.9584 18.184C73.9584 17.64 73.7824 17.224 73.4304 16.936C73.0784 16.648 72.6144 16.504 72.0384 16.504H68.6304V19.976ZM82.0605 27.192C81.2285 27.192 80.4765 27 79.8045 26.616C79.1325 26.2213 78.5992 25.6827 78.2045 25C77.8098 24.3173 77.6125 23.544 77.6125 22.68C77.6125 21.816 77.8045 21.048 78.1885 20.376C78.5832 19.704 79.1165 19.1707 79.7885 18.776C80.4605 18.3813 81.2178 18.184 82.0605 18.184C82.8925 18.184 83.6445 18.3813 84.3165 18.776C84.9885 19.16 85.5165 19.688 85.9005 20.36C86.2952 21.032 86.4925 21.8053 86.4925 22.68C86.4925 23.5547 86.2898 24.3333 85.8845 25.016C85.4792 25.688 84.9405 26.2213 84.2685 26.616C83.6072 27 82.8712 27.192 82.0605 27.192ZM82.0605 25.752C82.5938 25.752 83.0738 25.6187 83.5005 25.352C83.9378 25.0853 84.2792 24.7173 84.5245 24.248C84.7805 23.7787 84.9085 23.256 84.9085 22.68C84.9085 22.0933 84.7805 21.576 84.5245 21.128C84.2792 20.6693 83.9378 20.3067 83.5005 20.04C83.0738 19.7627 82.5938 19.624 82.0605 19.624C81.5165 19.624 81.0258 19.7627 80.5885 20.04C80.1618 20.3067 79.8205 20.6693 79.5645 21.128C79.3085 21.576 79.1805 22.0933 79.1805 22.68C79.1805 23.256 79.3085 23.7787 79.5645 24.248C79.8205 24.7173 80.1618 25.0853 80.5885 25.352C81.0258 25.6187 81.5165 25.752 82.0605 25.752ZM91.781 27.096C90.9383 27.096 90.2877 26.856 89.829 26.376C89.381 25.896 89.157 25.2187 89.157 24.344V19.8H87.589V18.376H87.909C88.293 18.376 88.597 18.2587 88.821 18.024C89.045 17.7893 89.157 17.48 89.157 17.096V16.392H90.645V18.376H92.581V19.8H90.645V24.296C90.645 24.584 90.6877 24.8347 90.773 25.048C90.869 25.2613 91.0237 25.432 91.237 25.56C91.4503 25.6773 91.733 25.736 92.085 25.736C92.1597 25.736 92.2503 25.7307 92.357 25.72C92.4743 25.7093 92.581 25.6987 92.677 25.688V27C92.5383 27.032 92.3837 27.0533 92.213 27.064C92.0423 27.0853 91.8983 27.096 91.781 27.096Z" fill="#111111"/>
<defs>
<linearGradient id="paint0_linear_5_4417" x1="2.76979" y1="-1.92308" x2="107.914" y2="42.8787" gradientUnits="userSpaceOnUse">
<stop stop-color="#825BF8"/>
<stop offset="0.447917" stop-color="#5F44F6"/>
<stop offset="0.963542" stop-color="#5CAFF9"/>
</linearGradient>
</defs>
</svg>
