<svg width="24" height="24" viewBox="0 0 24 24" fill="none" xmlns="http://www.w3.org/2000/svg">
<path d="M4 11C3.44772 11 3 11.4477 3 12C3 12.5523 3.44772 13 4 13V11ZM20 12L20.7071 12.7071L21.4142 12L20.7071 11.2929L20 12ZM14.7071 5.29289C14.3166 4.90237 13.6834 4.90237 13.2929 5.29289C12.9024 5.68342 12.9024 6.31658 13.2929 6.70711L14.7071 5.29289ZM13.2929 17.2929C12.9024 17.6834 12.9024 18.3166 13.2929 18.7071C13.6834 19.0976 14.3166 19.0976 14.7071 18.7071L13.2929 17.2929ZM4 13H20V11H4V13ZM13.2929 6.70711L19.2929 12.7071L20.7071 11.2929L14.7071 5.29289L13.2929 6.70711ZM19.2929 11.2929L13.2929 17.2929L14.7071 18.7071L20.7071 12.7071L19.2929 11.2929Z" fill="white"/>
</svg>
