<svg width="51" height="12" viewBox="0 0 51 12" fill="none" xmlns="http://www.w3.org/2000/svg">
<path d="M1 5.25C0.585786 5.25 0.25 5.58579 0.25 6C0.25 6.41421 0.585786 6.75 1 6.75L1 5.25ZM50.5303 6.53033C50.8232 6.23744 50.8232 5.76257 50.5303 5.46967L45.7574 0.696703C45.4645 0.40381 44.9896 0.40381 44.6967 0.696703C44.4038 0.989596 44.4038 1.46447 44.6967 1.75736L48.9393 6L44.6967 10.2426C44.4038 10.5355 44.4038 11.0104 44.6967 11.3033C44.9896 11.5962 45.4645 11.5962 45.7574 11.3033L50.5303 6.53033ZM1 6.75L25.5 6.75L25.5 5.25L1 5.25L1 6.75ZM25.5 6.75L37.75 6.75L37.75 5.25L25.5 5.25L25.5 6.75ZM37.75 6.75L43.875 6.75L43.875 5.25L37.75 5.25L37.75 6.75ZM43.875 6.75L50 6.75L50 5.25L43.875 5.25L43.875 6.75Z" fill="#111111"/>
</svg>
