<svg width="30" height="30" viewBox="0 0 30 30" fill="none" xmlns="http://www.w3.org/2000/svg">
<path d="M5 6.25C5 5.55964 5.55964 5 6.25 5H23.75C24.4404 5 25 5.55964 25 6.25V8.75C25 9.44036 24.4404 10 23.75 10H6.25C5.55964 10 5 9.44036 5 8.75V6.25Z" stroke="#111111" stroke-width="2" stroke-linecap="round" stroke-linejoin="round"/>
<path d="M5 16.25C5 15.5596 5.55964 15 6.25 15H13.75C14.4404 15 15 15.5596 15 16.25V23.75C15 24.4404 14.4404 25 13.75 25H6.25C5.55964 25 5 24.4404 5 23.75V16.25Z" stroke="#111111" stroke-width="2" stroke-linecap="round" stroke-linejoin="round"/>
<path d="M20 16.25C20 15.5596 20.5596 15 21.25 15H23.75C24.4404 15 25 15.5596 25 16.25V23.75C25 24.4404 24.4404 25 23.75 25H21.25C20.5596 25 20 24.4404 20 23.75V16.25Z" stroke="#111111" stroke-width="2" stroke-linecap="round" stroke-linejoin="round"/>
</svg>
