<svg width="25" height="24" viewBox="0 0 25 24" fill="none" xmlns="http://www.w3.org/2000/svg">
<path fill-rule="evenodd" clip-rule="evenodd" d="M12.5 21.6C17.8019 21.6 22.1 17.302 22.1 12C22.1 6.69809 17.8019 2.40002 12.5 2.40002C7.19806 2.40002 2.89999 6.69809 2.89999 12C2.89999 17.302 7.19806 21.6 12.5 21.6ZM16.9485 10.4486C17.4172 9.97992 17.4172 9.22013 16.9485 8.7515C16.4799 8.28287 15.7201 8.28287 15.2515 8.7515L11.3 12.703L9.74852 11.1515C9.27989 10.6829 8.52009 10.6829 8.05147 11.1515C7.58284 11.6201 7.58284 12.3799 8.05147 12.8486L10.4515 15.2486C10.9201 15.7172 11.6799 15.7172 12.1485 15.2486L16.9485 10.4486Z" fill="#1D1E25"/>
</svg>
