<svg width="165" height="40" viewBox="0 0 165 40" fill="none" xmlns="http://www.w3.org/2000/svg">
<rect x="0.5" y="0.5" width="164" height="39" rx="19.5" fill="white"/>
<rect x="0.5" y="0.5" width="164" height="39" rx="19.5" stroke="url(#paint0_linear_5_4420)"/>
<path d="M36 15L28 11L20 15M36 15L28 19M36 15V25L28 29M28 19L20 15M28 19V29M20 15V25L28 29" stroke="#111111" stroke-width="2" stroke-linejoin="round"/>
<path d="M54.816 27.192C53.9733 27.192 53.1947 27.0427 52.48 26.744C51.776 26.4347 51.1573 26.0027 50.624 25.448C50.1013 24.8933 49.696 24.2427 49.408 23.496C49.12 22.7493 48.976 21.9333 48.976 21.048C48.976 20.152 49.12 19.3307 49.408 18.584C49.696 17.8373 50.1013 17.1867 50.624 16.632C51.1467 16.0773 51.7653 15.6507 52.48 15.352C53.1947 15.0427 53.9733 14.888 54.816 14.888C55.6373 14.888 56.3733 15.032 57.024 15.32C57.6853 15.608 58.24 15.9813 58.688 16.44C59.1467 16.8987 59.472 17.3893 59.664 17.912L58.224 18.568C57.9467 17.9067 57.5147 17.3733 56.928 16.968C56.3413 16.552 55.6373 16.344 54.816 16.344C53.984 16.344 53.2427 16.5413 52.592 16.936C51.952 17.3307 51.4507 17.88 51.088 18.584C50.7253 19.288 50.544 20.1093 50.544 21.048C50.544 21.976 50.7253 22.792 51.088 23.496C51.4507 24.2 51.952 24.7493 52.592 25.144C53.2427 25.5387 53.984 25.736 54.816 25.736C55.6373 25.736 56.3413 25.5333 56.928 25.128C57.5147 24.712 57.9467 24.1733 58.224 23.512L59.664 24.168C59.472 24.6907 59.1467 25.1813 58.688 25.64C58.24 26.0987 57.6853 26.472 57.024 26.76C56.3733 27.048 55.6373 27.192 54.816 27.192ZM64.6768 27.192C64.0581 27.192 63.4981 27.048 62.9968 26.76C62.5061 26.472 62.1221 26.072 61.8448 25.56C61.5781 25.0373 61.4448 24.44 61.4448 23.768V18.376H62.9328V23.608C62.9328 24.0347 63.0181 24.408 63.1888 24.728C63.3701 25.048 63.6154 25.2987 63.9248 25.48C64.2448 25.6613 64.6074 25.752 65.0128 25.752C65.4181 25.752 65.7754 25.6613 66.0848 25.48C66.4048 25.2987 66.6501 25.0373 66.8208 24.696C67.0021 24.3547 67.0928 23.9493 67.0928 23.48V18.376H68.5968V27H67.1408V25.32L67.3808 25.464C67.1781 26.008 66.8314 26.4347 66.3408 26.744C65.8608 27.0427 65.3061 27.192 64.6768 27.192ZM73.99 27.192C73.126 27.192 72.374 26.9787 71.734 26.552C71.094 26.1253 70.6407 25.5493 70.374 24.824L71.558 24.248C71.8033 24.76 72.1393 25.1653 72.566 25.464C72.9927 25.7627 73.4673 25.912 73.99 25.912C74.4593 25.912 74.8487 25.8 75.158 25.576C75.4673 25.352 75.622 25.0587 75.622 24.696C75.622 24.44 75.5473 24.2373 75.398 24.088C75.2593 23.928 75.0887 23.8053 74.886 23.72C74.6833 23.624 74.4967 23.5547 74.326 23.512L73.03 23.144C72.2513 22.92 71.6807 22.6 71.318 22.184C70.966 21.768 70.79 21.2827 70.79 20.728C70.79 20.216 70.918 19.7733 71.174 19.4C71.4407 19.016 71.798 18.7173 72.246 18.504C72.7047 18.2907 73.2167 18.184 73.782 18.184C74.5393 18.184 75.2167 18.376 75.814 18.76C76.422 19.144 76.854 19.6827 77.11 20.376L75.894 20.936C75.702 20.488 75.414 20.136 75.03 19.88C74.646 19.6133 74.214 19.48 73.734 19.48C73.2967 19.48 72.95 19.592 72.694 19.816C72.438 20.0293 72.31 20.3013 72.31 20.632C72.31 20.8773 72.374 21.08 72.502 21.24C72.63 21.3893 72.7847 21.5067 72.966 21.592C73.1473 21.6667 73.3233 21.7307 73.494 21.784L74.902 22.2C75.606 22.4027 76.15 22.7173 76.534 23.144C76.9287 23.5707 77.126 24.0827 77.126 24.68C77.126 25.16 76.9927 25.592 76.726 25.976C76.4593 26.36 76.0913 26.6587 75.622 26.872C75.1527 27.0853 74.6087 27.192 73.99 27.192ZM82.5779 27.096C81.7352 27.096 81.0845 26.856 80.6259 26.376C80.1779 25.896 79.9539 25.2187 79.9539 24.344V19.8H78.3859V18.376H78.7059C79.0899 18.376 79.3939 18.2587 79.6179 18.024C79.8419 17.7893 79.9539 17.48 79.9539 17.096V16.392H81.4419V18.376H83.3779V19.8H81.4419V24.296C81.4419 24.584 81.4845 24.8347 81.5699 25.048C81.6659 25.2613 81.8205 25.432 82.0339 25.56C82.2472 25.6773 82.5299 25.736 82.8819 25.736C82.9565 25.736 83.0472 25.7307 83.1539 25.72C83.2712 25.7093 83.3779 25.6987 83.4739 25.688V27C83.3352 27.032 83.1805 27.0533 83.0099 27.064C82.8392 27.0853 82.6952 27.096 82.5779 27.096ZM89.2793 27.192C88.4473 27.192 87.6953 27 87.0233 26.616C86.3513 26.2213 85.8179 25.6827 85.4233 25C85.0286 24.3173 84.8313 23.544 84.8313 22.68C84.8313 21.816 85.0233 21.048 85.4073 20.376C85.8019 19.704 86.3353 19.1707 87.0073 18.776C87.6793 18.3813 88.4366 18.184 89.2793 18.184C90.1113 18.184 90.8633 18.3813 91.5353 18.776C92.2073 19.16 92.7353 19.688 93.1193 20.36C93.5139 21.032 93.7113 21.8053 93.7113 22.68C93.7113 23.5547 93.5086 24.3333 93.1033 25.016C92.6979 25.688 92.1593 26.2213 91.4873 26.616C90.8259 27 90.0899 27.192 89.2793 27.192ZM89.2793 25.752C89.8126 25.752 90.2926 25.6187 90.7193 25.352C91.1566 25.0853 91.4979 24.7173 91.7433 24.248C91.9993 23.7787 92.1273 23.256 92.1273 22.68C92.1273 22.0933 91.9993 21.576 91.7433 21.128C91.4979 20.6693 91.1566 20.3067 90.7193 20.04C90.2926 19.7627 89.8126 19.624 89.2793 19.624C88.7353 19.624 88.2446 19.7627 87.8073 20.04C87.3806 20.3067 87.0393 20.6693 86.7833 21.128C86.5273 21.576 86.3993 22.0933 86.3993 22.68C86.3993 23.256 86.5273 23.7787 86.7833 24.248C87.0393 24.7173 87.3806 25.0853 87.8073 25.352C88.2446 25.6187 88.7353 25.752 89.2793 25.752ZM95.652 27V18.376H97.108V20.136L96.9 19.864C97.1133 19.32 97.4547 18.904 97.924 18.616C98.3933 18.328 98.9213 18.184 99.508 18.184C100.18 18.184 100.783 18.3707 101.316 18.744C101.86 19.1173 102.233 19.608 102.436 20.216L102.02 20.232C102.244 19.56 102.623 19.0533 103.156 18.712C103.689 18.36 104.281 18.184 104.932 18.184C105.529 18.184 106.068 18.3227 106.548 18.6C107.039 18.8773 107.428 19.2613 107.716 19.752C108.004 20.2427 108.148 20.7973 108.148 21.416V27H106.644V21.896C106.644 21.416 106.559 21.0107 106.388 20.68C106.217 20.3493 105.983 20.0933 105.684 19.912C105.396 19.72 105.055 19.624 104.66 19.624C104.276 19.624 103.929 19.72 103.62 19.912C103.321 20.0933 103.081 20.3547 102.9 20.696C102.729 21.0267 102.644 21.4267 102.644 21.896V27H101.14V21.896C101.14 21.416 101.055 21.0107 100.884 20.68C100.713 20.3493 100.479 20.0933 100.18 19.912C99.892 19.72 99.5507 19.624 99.156 19.624C98.772 19.624 98.4253 19.72 98.116 19.912C97.8173 20.0933 97.5773 20.3547 97.396 20.696C97.2253 21.0267 97.14 21.4267 97.14 21.896V27H95.652ZM113.203 27V15.08H117.107C118.312 15.08 119.363 15.3253 120.259 15.816C121.155 16.3067 121.848 17 122.339 17.896C122.83 18.7813 123.075 19.8267 123.075 21.032C123.075 22.2267 122.83 23.272 122.339 24.168C121.848 25.064 121.155 25.7627 120.259 26.264C119.363 26.7547 118.312 27 117.107 27H113.203ZM114.771 25.56H117.123C118.008 25.56 118.771 25.3733 119.411 25C120.062 24.6267 120.563 24.104 120.915 23.432C121.267 22.7493 121.443 21.9493 121.443 21.032C121.443 20.104 121.262 19.304 120.899 18.632C120.547 17.96 120.046 17.4427 119.395 17.08C118.755 16.7067 117.998 16.52 117.123 16.52H114.771V25.56ZM127.305 27.192C126.74 27.192 126.238 27.0907 125.801 26.888C125.374 26.6747 125.038 26.3867 124.793 26.024C124.548 25.6507 124.425 25.224 124.425 24.744C124.425 24.2853 124.521 23.8747 124.713 23.512C124.916 23.1387 125.225 22.824 125.641 22.568C126.068 22.312 126.601 22.1307 127.241 22.024L130.441 21.496V22.744L127.577 23.224C127.022 23.32 126.617 23.496 126.361 23.752C126.116 24.008 125.993 24.3227 125.993 24.696C125.993 25.048 126.132 25.3413 126.409 25.576C126.697 25.8107 127.054 25.928 127.481 25.928C128.025 25.928 128.494 25.816 128.889 25.592C129.294 25.3573 129.609 25.0427 129.833 24.648C130.068 24.2533 130.185 23.816 130.185 23.336V21.144C130.185 20.6747 130.009 20.296 129.657 20.008C129.316 19.7093 128.862 19.56 128.297 19.56C127.806 19.56 127.369 19.688 126.985 19.944C126.612 20.1893 126.334 20.52 126.153 20.936L124.857 20.264C125.017 19.8693 125.273 19.5173 125.625 19.208C125.977 18.888 126.388 18.6373 126.857 18.456C127.326 18.2747 127.817 18.184 128.329 18.184C128.99 18.184 129.572 18.312 130.073 18.568C130.574 18.8133 130.964 19.16 131.241 19.608C131.529 20.0453 131.673 20.5573 131.673 21.144V27H130.217V25.368L130.489 25.464C130.308 25.8053 130.062 26.104 129.753 26.36C129.444 26.616 129.081 26.8187 128.665 26.968C128.249 27.1173 127.796 27.192 127.305 27.192ZM137.328 27.096C136.485 27.096 135.835 26.856 135.376 26.376C134.928 25.896 134.704 25.2187 134.704 24.344V19.8H133.136V18.376H133.456C133.84 18.376 134.144 18.2587 134.368 18.024C134.592 17.7893 134.704 17.48 134.704 17.096V16.392H136.192V18.376H138.128V19.8H136.192V24.296C136.192 24.584 136.235 24.8347 136.32 25.048C136.416 25.2613 136.571 25.432 136.784 25.56C136.997 25.6773 137.28 25.736 137.632 25.736C137.707 25.736 137.797 25.7307 137.904 25.72C138.021 25.7093 138.128 25.6987 138.224 25.688V27C138.085 27.032 137.931 27.0533 137.76 27.064C137.589 27.0853 137.445 27.096 137.328 27.096ZM142.586 27.192C142.021 27.192 141.52 27.0907 141.082 26.888C140.656 26.6747 140.32 26.3867 140.074 26.024C139.829 25.6507 139.706 25.224 139.706 24.744C139.706 24.2853 139.802 23.8747 139.994 23.512C140.197 23.1387 140.506 22.824 140.922 22.568C141.349 22.312 141.882 22.1307 142.522 22.024L145.722 21.496V22.744L142.858 23.224C142.304 23.32 141.898 23.496 141.642 23.752C141.397 24.008 141.274 24.3227 141.274 24.696C141.274 25.048 141.413 25.3413 141.69 25.576C141.978 25.8107 142.336 25.928 142.762 25.928C143.306 25.928 143.776 25.816 144.17 25.592C144.576 25.3573 144.89 25.0427 145.114 24.648C145.349 24.2533 145.466 23.816 145.466 23.336V21.144C145.466 20.6747 145.29 20.296 144.938 20.008C144.597 19.7093 144.144 19.56 143.578 19.56C143.088 19.56 142.65 19.688 142.266 19.944C141.893 20.1893 141.616 20.52 141.434 20.936L140.138 20.264C140.298 19.8693 140.554 19.5173 140.906 19.208C141.258 18.888 141.669 18.6373 142.138 18.456C142.608 18.2747 143.098 18.184 143.61 18.184C144.272 18.184 144.853 18.312 145.354 18.568C145.856 18.8133 146.245 19.16 146.522 19.608C146.81 20.0453 146.954 20.5573 146.954 21.144V27H145.498V25.368L145.77 25.464C145.589 25.8053 145.344 26.104 145.034 26.36C144.725 26.616 144.362 26.8187 143.946 26.968C143.53 27.1173 143.077 27.192 142.586 27.192Z" fill="#111111"/>
<defs>
<linearGradient id="paint0_linear_5_4420" x1="4.15468" y1="-1.92308" x2="136.459" y2="82.6386" gradientUnits="userSpaceOnUse">
<stop stop-color="#825BF8"/>
<stop offset="0.447917" stop-color="#5F44F6"/>
<stop offset="0.963542" stop-color="#5CAFF9"/>
</linearGradient>
</defs>
</svg>
