<svg width="28" height="22" viewBox="0 0 28 22" fill="none" xmlns="http://www.w3.org/2000/svg">
<g clip-path="url(#clip0_1_2077)">
<mask id="mask0_1_2077" style="mask-type:alpha" maskUnits="userSpaceOnUse" x="0" y="0" width="28" height="22">
<path d="M28 0.5H0V21.5H28V0.5Z" fill="white"/>
</mask>
<g mask="url(#mask0_1_2077)">
<path fill-rule="evenodd" clip-rule="evenodd" d="M0 0.5V21.5H28V0.5H0Z" fill="#FFB400"/>
<mask id="mask1_1_2077" style="mask-type:alpha" maskUnits="userSpaceOnUse" x="0" y="0" width="28" height="22">
<path fill-rule="evenodd" clip-rule="evenodd" d="M0 0.5V21.5H28V0.5H0Z" fill="white"/>
</mask>
<g mask="url(#mask1_1_2077)">
<path fill-rule="evenodd" clip-rule="evenodd" d="M0 0.5V5.75H28V0.5H0Z" fill="#C51918"/>
<path fill-rule="evenodd" clip-rule="evenodd" d="M9.15527e-05 16.25V21.5H28.0001V16.25H9.15527e-05Z" fill="#C51918"/>
<path d="M5.36248 9.48804H4.38248V14.584H5.36248V9.48804Z" fill="#F1F9FF"/>
<path fill-rule="evenodd" clip-rule="evenodd" d="M5.75445 8.60596H3.99045V9.09596H4.28445V9.48796H5.46045V9.09596H5.75445V8.60596Z" fill="#C88A02"/>
<path fill-rule="evenodd" clip-rule="evenodd" d="M5.46045 14.8781H5.75445V15.3681H3.99045V14.8781H4.28445V14.4861H5.46045V14.8781Z" fill="#C88A02"/>
<path fill-rule="evenodd" clip-rule="evenodd" d="M4.87167 8.70398C5.08492 8.70398 5.10661 8.62367 5.23243 8.50372C5.33013 8.41059 5.55767 8.29509 5.55767 8.16498C5.55767 7.86728 5.25053 7.62598 4.87167 7.62598C4.49279 7.62598 4.18567 7.86728 4.18567 8.16498C4.18567 8.30993 4.34236 8.40686 4.46084 8.50372C4.58567 8.60578 4.6773 8.70398 4.87167 8.70398Z" fill="#AD1619"/>
<path fill-rule="evenodd" clip-rule="evenodd" d="M3.99045 15.3679H5.75445V16.1519C5.75445 16.1519 5.53395 16.0539 5.31345 16.0539C5.09295 16.0539 4.87245 16.1519 4.87245 16.1519C4.87245 16.1519 4.65195 16.0539 4.43145 16.0539C4.21095 16.0539 3.99045 16.1519 3.99045 16.1519V15.3679Z" fill="#005BBF"/>
<path d="M14.9664 9.48804H13.9864V14.584H14.9664V9.48804Z" fill="#F1F9FF"/>
<path fill-rule="evenodd" clip-rule="evenodd" d="M15.3584 8.60596H13.5944V9.09596H13.8884V9.48796H15.0644V9.09596H15.3584V8.60596Z" fill="#C88A02"/>
<path fill-rule="evenodd" clip-rule="evenodd" d="M15.0644 14.8781H15.3584V15.3681H13.5944V14.8781H13.8884V14.4861H15.0644V14.8781Z" fill="#C88A02"/>
<path fill-rule="evenodd" clip-rule="evenodd" d="M14.4756 8.70398C14.6889 8.70398 14.7106 8.62367 14.8364 8.50372C14.9341 8.41059 15.1616 8.29509 15.1616 8.16498C15.1616 7.86728 14.8545 7.62598 14.4756 7.62598C14.0968 7.62598 13.7896 7.86728 13.7896 8.16498C13.7896 8.30993 13.9463 8.40686 14.0648 8.50372C14.1896 8.60578 14.2813 8.70398 14.4756 8.70398Z" fill="#AD1619"/>
<path fill-rule="evenodd" clip-rule="evenodd" d="M13.5944 15.3679H15.3584V16.1519C15.3584 16.1519 15.1379 16.0539 14.9174 16.0539C14.6969 16.0539 14.4764 16.1519 14.4764 16.1519C14.4764 16.1519 14.2559 16.0539 14.0354 16.0539C13.8149 16.0539 13.5944 16.1519 13.5944 16.1519V15.3679Z" fill="#005BBF"/>
<path fill-rule="evenodd" clip-rule="evenodd" d="M4.36484 14.2199C4.54152 14.0057 4.64032 13.8108 4.64032 13.6038C4.64032 13.4733 4.60149 13.3606 4.53345 13.2685L4.54495 13.2634C4.5439 13.2639 4.73878 13.1789 4.80662 13.1464C4.93276 13.0859 5.04389 13.0218 5.15223 12.943C5.22139 12.8927 5.31407 12.838 5.45535 12.7621L5.62396 12.6724C5.69263 12.6358 5.74377 12.6077 5.79126 12.5802C5.93929 12.4943 6.0371 12.4233 6.11191 12.3285C6.28912 12.1038 6.25233 11.7992 6.00401 11.6301C5.88235 11.5473 5.71818 11.4997 5.47754 11.4623L5.13335 11.409C5.01818 11.3909 4.91544 11.374 4.82381 11.358C5.4263 11.2577 6.28663 11.2946 6.66507 11.49L7.02475 10.7934C6.25358 10.3952 4.49645 10.4359 3.8401 10.8879C3.35867 11.2194 3.42327 11.7206 3.92417 11.9364C4.13347 12.0266 4.40633 12.0864 4.91124 12.1675C4.82663 12.2166 4.75647 12.2615 4.69111 12.309C4.62483 12.3572 4.5538 12.3981 4.46767 12.4394C4.42647 12.4592 4.3045 12.5127 4.24857 12.5373L4.22043 12.5497C3.81243 12.7352 3.61442 12.9918 3.67359 13.4551L3.70561 13.7059L3.76308 13.7236L4.36484 14.2199ZM14.6181 13.6038C14.6181 13.8108 14.7169 14.0057 14.8936 14.2199L15.4953 13.7236L15.5528 13.7059L15.5848 13.4551C15.644 12.9918 15.446 12.7352 15.038 12.5497L15.0099 12.5373C14.954 12.5128 14.832 12.4592 14.7907 12.4394C14.7046 12.3981 14.6336 12.3572 14.5673 12.309C14.5019 12.2615 14.4318 12.2166 14.3472 12.1675C14.8521 12.0864 15.1249 12.0266 15.3342 11.9364C15.8351 11.7206 15.8997 11.2194 15.4183 10.8879C14.762 10.4359 13.0048 10.3952 12.2337 10.7934L12.5933 11.49C12.9718 11.2946 13.8321 11.2577 14.4346 11.358C14.343 11.374 14.2402 11.3909 14.1251 11.409L13.7809 11.4623C13.5402 11.4997 13.3761 11.5473 13.2544 11.6301C13.0061 11.7992 12.9693 12.1038 13.1465 12.3285C13.2213 12.4233 13.3191 12.4943 13.4671 12.5802C13.5146 12.6077 13.5658 12.6358 13.6344 12.6724L13.8031 12.7621C13.9443 12.838 14.037 12.8927 14.1062 12.943C14.2145 13.0218 14.3256 13.0859 14.4518 13.1464C14.5196 13.1789 14.7145 13.2639 14.7135 13.2634L14.725 13.2685C14.6569 13.3606 14.6181 13.4733 14.6181 13.6038Z" fill="#AD1619"/>
<path d="M5.18342 11.3501L5.47267 11.4099V11.8411C5.16459 12.0869 4.38248 12.5012 4.38248 12.5012V11.3501H5.18342Z" fill="#F1F9FF"/>
<path d="M14.2757 11.3501L13.9864 11.4099V11.8411C14.2945 12.0869 15.0766 12.5012 15.0766 12.5012V11.3501H14.2757Z" fill="#F1F9FF"/>
<path fill-rule="evenodd" clip-rule="evenodd" d="M12.9289 6.80529V6.66181C12.4248 6.30005 11.897 6.11917 11.3453 6.11917C10.8164 5.88513 10.2811 5.79428 9.73935 5.84663L9.73958 5.84411C8.92497 5.76439 8.10403 6.11917 8.10403 6.11917C7.27652 6.11917 6.52042 6.66181 6.52042 6.66181V6.80529L7.50885 7.79802C7.50885 7.79802 7.78696 8.75317 9.7345 8.52906L9.73555 8.53137C9.73555 8.53137 11.0256 8.49616 11.1162 8.46601C11.1522 8.45404 11.1895 8.44315 11.2276 8.43202C11.4803 8.35824 11.7688 8.27403 11.9405 7.79802L12.9289 6.80529ZM9.73492 5.89795C9.73084 5.9461 9.72439 6.0245 9.71674 6.12472C9.72643 6.0529 9.73294 5.97754 9.73492 5.89795Z" fill="#AD1619"/>
<path fill-rule="evenodd" clip-rule="evenodd" d="M6.57956 6.97373L6.64671 6.90234L7.54419 7.74672C7.71456 7.70092 8.63927 7.46527 9.67219 7.45368L9.7115 7.45335L9.75079 7.45323C10.8952 7.46607 11.9068 7.7544 11.9068 7.7544C11.9068 7.7544 11.896 7.84727 11.8696 7.95647C11.8975 7.89932 11.9305 7.83579 11.9687 7.76569L11.9782 7.75342L12.8828 6.90234L12.9499 6.97373L12.051 7.81943C11.9199 8.06095 11.8538 8.22036 11.8538 8.28659C11.8538 8.38762 11.591 8.44758 11.078 8.50918C10.6762 8.55742 10.2019 8.5898 9.81391 8.59465L9.76473 8.59512L9.71556 8.59528C9.3276 8.59043 8.85332 8.55742 8.45145 8.50918C7.93847 8.44758 7.67564 8.38762 7.67564 8.28659C7.67564 8.27406 7.67327 8.25819 7.66855 8.23906C7.61682 8.17319 7.58045 8.06543 7.55625 7.96822C7.53354 7.92277 7.5076 7.87312 7.47845 7.81943L6.57956 6.97373ZM11.5962 8.2885C11.6648 8.32063 11.7199 8.28859 11.7634 8.22706C11.7596 8.24405 11.7573 8.25942 11.7563 8.27317C11.7506 8.27693 11.7418 8.28147 11.7302 8.28633C11.6979 8.29989 11.6486 8.31435 11.5845 8.32898C11.4584 8.35775 11.279 8.38633 11.0663 8.41186C10.6511 8.46173 10.1573 8.49453 9.76473 8.49712C9.37217 8.49453 8.87839 8.46173 8.46314 8.41186C8.25048 8.38633 8.07105 8.35775 7.945 8.32898C7.89124 8.31673 7.84789 8.30458 7.81627 8.29298L7.82682 8.2885C8.04091 8.18833 9.45656 8.09432 9.7115 8.0781C9.96644 8.09432 11.3821 8.18833 11.5962 8.2885Z" fill="#C88A02"/>
<path fill-rule="evenodd" clip-rule="evenodd" d="M9.72335 5.17882C9.88573 5.17882 10.0174 5.04719 10.0174 4.88482C10.0174 4.72246 9.88573 4.59082 9.72335 4.59082C9.56099 4.59082 9.42935 4.72246 9.42935 4.88482C9.42935 5.04719 9.56099 5.17882 9.72335 5.17882Z" fill="#005BBF"/>
<path fill-rule="evenodd" clip-rule="evenodd" d="M9.61334 4.06714H9.81751V4.19611H9.95092V4.40029H9.81751V4.80861H9.95092V5.01279H9.47787V4.80861H9.61334V4.40029H9.47787V4.19611H9.61334V4.06714Z" fill="#C88A02"/>
<path d="M9.96768 5.17603H9.57568V6.45003H9.96768V5.17603Z" fill="#C88A02"/>
<path d="M6.74442 6.88485L6.20609 6.86461C6.46008 5.39672 7.71096 4.67749 9.70983 4.67749C11.7113 4.67749 12.9577 5.39984 13.1926 6.87318L12.4646 6.94955C12.3502 6.23258 11.1493 5.58373 9.72035 5.58373C8.28876 5.58373 6.86942 6.16242 6.74442 6.88485Z" fill="#C88A02"/>
<path opacity="0.3" fill-rule="evenodd" clip-rule="evenodd" d="M6.53854 8.60596H12.9085V14.3292C12.9085 14.3292 12.4354 16.25 9.72354 16.25C7.01173 16.25 6.53854 14.2785 6.53854 14.2785V8.60596Z" fill="#E1E5E8"/>
<mask id="mask2_1_2077" style="mask-type:alpha" maskUnits="userSpaceOnUse" x="6" y="8" width="7" height="9">
<path fill-rule="evenodd" clip-rule="evenodd" d="M6.53854 8.60596H12.9085V14.3292C12.9085 14.3292 12.4354 16.25 9.72354 16.25C7.01173 16.25 6.53854 14.2785 6.53854 14.2785V8.60596Z" fill="white"/>
</mask>
<g mask="url(#mask2_1_2077)">
<path d="M9.77248 12.134H6.53848V15.956H9.77248V12.134Z" fill="#FFC034"/>
<path d="M9.77251 8.50806H6.53851V12.2321H9.77251V8.50806Z" fill="#AD1619"/>
<path d="M12.9082 12.0361H9.67419V15.7601H12.9082V12.0361Z" fill="#AD1619"/>
<path d="M13.1042 8.60596H9.67419V12.232H13.1042V8.60596Z" fill="#F1F9FF"/>
<path fill-rule="evenodd" clip-rule="evenodd" d="M11.7979 15.7624C11.7979 15.7624 9.72226 15.9256 9.72226 14.5869C9.72226 14.5869 9.70247 15.7624 7.5351 15.7624V16.8193H11.7979V15.7624Z" fill="#F1F9FF"/>
<path fill-rule="evenodd" clip-rule="evenodd" d="M9.72377 12.9181C10.1297 12.9181 10.4588 12.5671 10.4588 12.1341C10.4588 11.7011 10.1297 11.3501 9.72377 11.3501C9.31784 11.3501 8.98877 11.7011 8.98877 12.1341C8.98877 12.5671 9.31784 12.9181 9.72377 12.9181Z" fill="#005BBF" stroke="#AD1619" stroke-width="1.02083"/>
</g>
<path fill-rule="evenodd" clip-rule="evenodd" d="M7.87497 11C8.35821 11 8.74997 10.6082 8.74997 10.125C8.74997 9.64176 8.35821 9.25 7.87497 9.25C7.39172 9.25 6.99997 9.64176 6.99997 10.125C6.99997 10.6082 7.39172 11 7.87497 11Z" fill="#C88A02"/>
<path fill-rule="evenodd" clip-rule="evenodd" d="M11.3751 11C11.8583 11 12.2501 10.6082 12.2501 10.125C12.2501 9.64176 11.8583 9.25 11.3751 9.25C10.8918 9.25 10.5001 9.64176 10.5001 10.125C10.5001 10.6082 10.8918 11 11.3751 11Z" fill="#C37C9C"/>
<path fill-rule="evenodd" clip-rule="evenodd" d="M11.3751 14.5C11.8583 14.5 12.2501 14.1082 12.2501 13.625C12.2501 13.1418 11.8583 12.75 11.3751 12.75C10.8918 12.75 10.5001 13.1418 10.5001 13.625C10.5001 14.1082 10.8918 14.5 11.3751 14.5Z" fill="#FFC034"/>
<path d="M7.87497 14.5C8.35821 14.5 8.74997 14.1082 8.74997 13.625C8.74997 13.1418 8.35821 12.75 7.87497 12.75C7.39172 12.75 6.99997 13.1418 6.99997 13.625C6.99997 14.1082 7.39172 14.5 7.87497 14.5Z" fill="#AD1619"/>
</g>
</g>
</g>
<defs>
<clipPath id="clip0_1_2077">
<rect width="28" height="21" fill="white" transform="translate(0 0.5)"/>
</clipPath>
</defs>
</svg>
