<svg width="28" height="22" viewBox="0 0 28 22" fill="none" xmlns="http://www.w3.org/2000/svg">
<path d="M28 0.5H0V21.5H28V0.5Z" fill="white"/>
<path fill-rule="evenodd" clip-rule="evenodd" d="M0 0.5H28V21.5H0V0.5Z" fill="#E31D1C"/>
<path fill-rule="evenodd" clip-rule="evenodd" d="M-9.15527e-05 2.25V4H27.9999V2.25H-9.15527e-05ZM-9.15527e-05 5.75V7.5H27.9999V5.75H-9.15527e-05ZM-9.15527e-05 11V9.25H27.9999V11H-9.15527e-05ZM-9.15527e-05 12.75V14.5H27.9999V12.75H-9.15527e-05ZM-9.15527e-05 18V16.25H27.9999V18H-9.15527e-05ZM-9.15527e-05 21.5V19.75H27.9999V21.5H-9.15527e-05Z" fill="#F7FCFF"/>
<path d="M15.75 0.5H0V12.75H15.75V0.5Z" fill="#2E42A5"/>
<path fill-rule="evenodd" clip-rule="evenodd" d="M1.81981 4.30406L2.74717 3.65808L3.46653 4.17596H3.05923L3.88291 4.90449L3.60471 5.92596H3.16898L2.74588 4.98779L2.38506 5.92596H1.30923L2.13291 6.65449L1.81981 7.80406L2.74717 7.15808L3.46653 7.67596H3.05923L3.88291 8.40449L3.60471 9.42596H3.16898L2.74588 8.48779L2.38506 9.42596H1.30923L2.13291 10.1545L1.81981 11.3041L2.74717 10.6581L3.64447 11.3041L3.36548 10.1545L4.08608 9.42596H3.75372L4.49717 8.90808L5.21653 9.42596H4.80923L5.63291 10.1545L5.31981 11.3041L6.24717 10.6581L7.14447 11.3041L6.86548 10.1545L7.58608 9.42596H7.25372L7.99717 8.90808L8.71653 9.42596H8.30923L9.13291 10.1545L8.81981 11.3041L9.74717 10.6581L10.6445 11.3041L10.3655 10.1545L11.0861 9.42596H10.7537L11.4972 8.90808L12.2165 9.42596H11.8092L12.6329 10.1545L12.3198 11.3041L13.2472 10.6581L14.1445 11.3041L13.8655 10.1545L14.5861 9.42596H13.669L13.2459 8.48779L12.8851 9.42596H12.3634L12.1155 8.40449L12.8361 7.67596H12.5037L13.2472 7.15808L14.1445 7.80406L13.8655 6.65449L14.5861 5.92596H13.669L13.2459 4.98779L12.8851 5.92596H12.3634L12.1155 4.90449L12.8361 4.17596H12.5037L13.2472 3.65808L14.1445 4.30406L13.8655 3.15449L14.5861 2.42596H13.669L13.2459 1.48779L12.8851 2.42596H11.8092L12.6329 3.15449L12.3547 4.17596H11.919L11.4959 3.23779L11.1351 4.17596H10.6134L10.3655 3.15449L11.0861 2.42596H10.169L9.74588 1.48779L9.38506 2.42596H8.30923L9.13291 3.15449L8.85471 4.17596H8.41897L7.99588 3.23779L7.63506 4.17596H7.11337L6.86548 3.15449L7.58608 2.42596H6.66898L6.24588 1.48779L5.88506 2.42596H4.80923L5.63291 3.15449L5.35471 4.17596H4.91898L4.49588 3.23779L4.13506 4.17596H3.61337L3.36548 3.15449L4.08608 2.42596H3.16898L2.74588 1.48779L2.38506 2.42596H1.30923L2.13291 3.15449L1.81981 4.30406ZM12.3547 7.67596L12.6329 6.65449L11.8092 5.92596H12.2165L11.4972 5.40808L10.7537 5.92596H11.0861L10.3655 6.65449L10.6134 7.67596H11.1351L11.4959 6.73779L11.919 7.67596H12.3547ZM10.4665 7.67596L9.74717 7.15808L9.00372 7.67596H9.33608L8.61548 8.40449L8.86337 9.42596H9.38506L9.74588 8.48779L10.169 9.42596H10.6047L10.8829 8.40449L10.0592 7.67596H10.4665ZM7.38291 8.40449L7.10471 9.42596H6.66898L6.24588 8.48779L5.88506 9.42596H5.36337L5.11548 8.40449L5.83608 7.67596H5.50372L6.24717 7.15808L6.96653 7.67596H6.55923L7.38291 8.40449ZM7.63506 7.67596H7.11337L6.86548 6.65449L7.58608 5.92596H7.25372L7.99717 5.40808L8.71653 5.92596H8.30923L9.13291 6.65449L8.85471 7.67596H8.41897L7.99588 6.73779L7.63506 7.67596ZM5.35471 7.67596L5.63291 6.65449L4.80923 5.92596H5.21653L4.49717 5.40808L3.75372 5.92596H4.08608L3.36548 6.65449L3.61337 7.67596H4.13506L4.49588 6.73779L4.91898 7.67596H5.35471ZM10.8829 4.90449L10.6047 5.92596H10.169L9.74588 4.98779L9.38506 5.92596H8.86337L8.61548 4.90449L9.33608 4.17596H9.00372L9.74717 3.65808L10.4665 4.17596H10.0592L10.8829 4.90449ZM6.96653 4.17596L6.24717 3.65808L5.50372 4.17596H5.83608L5.11548 4.90449L5.36337 5.92596H5.88506L6.24588 4.98779L6.66898 5.92596H7.10471L7.38291 4.90449L6.55923 4.17596H6.96653Z" fill="#F7FCFF"/>
</svg>
