<svg width="32" height="25" viewBox="0 0 32 25" fill="none" xmlns="http://www.w3.org/2000/svg">
<g clip-path="url(#clip0_9_4796)">
<path d="M26.7819 22.5949H4.70672C3.162 22.5949 1.90973 21.3427 1.90973 19.7979V4.33923C1.90973 2.79451 3.162 1.54224 4.70672 1.54224H26.7819C28.3267 1.54224 29.5789 2.79451 29.5789 4.33923V19.7979C29.5789 21.3427 28.3267 22.5949 26.7819 22.5949Z" fill="#98A2B3"/>
<path d="M26.7819 23.1963H4.70672C2.8328 23.1963 1.30823 21.6717 1.30823 19.7978V4.33917C1.30823 2.46525 2.8328 0.940674 4.70672 0.940674H26.7819C28.6558 0.940674 30.1804 2.46525 30.1804 4.33917V19.7978C30.1804 21.6717 28.6558 23.1963 26.7819 23.1963ZM4.70672 2.14368C3.49614 2.14368 2.51124 3.12858 2.51124 4.33917V19.7978C2.51124 21.0084 3.49614 21.9933 4.70672 21.9933H26.7819C27.9925 21.9933 28.9774 21.0084 28.9774 19.7978V4.33917C28.9774 3.12858 27.9925 2.14368 26.7819 2.14368H4.70672Z" fill="#98A2B3"/>
<path d="M16.8296 9.39349C17.1459 9.26525 17.3338 8.93628 17.3295 8.59439C17.3295 7.8937 16.7271 7.80828 16.1588 7.80828L14.488 7.79541V10.7566H15.1887V9.68407H15.9579C16.7442 9.68407 16.5775 10.1242 16.5904 10.7566H17.2997V10.1797C17.2996 9.78657 17.2355 9.53448 16.8296 9.39349ZM16.0734 9.07728H15.1887V8.42344H16.0861C16.304 8.42344 16.5433 8.46621 16.5433 8.73965C16.5433 9.02176 16.3168 9.07728 16.0734 9.07728Z" fill="white"/>
<path d="M15.3597 12.9016H13.1079L12.2105 13.8757L11.3345 12.9016H8.4931L8.48877 15.8628H11.2834L12.1934 14.88L13.0651 15.8628H14.441L14.4453 14.8673C15.2529 14.8673 16.5519 15.0637 16.5519 13.8717C16.5519 13.1323 16.0263 12.9016 15.3597 12.9016ZM10.9244 15.2389H9.18952V14.6492H10.7406V14.0468H9.18952V13.5125H10.9714L11.7362 14.3758L10.9244 15.2389ZM13.7359 15.5893L12.6549 14.3886L13.7359 13.2178V15.5893ZM15.3512 14.2647H14.4453V13.5126H15.364C15.6032 13.5126 15.7999 13.6108 15.7999 13.8717C15.7999 14.145 15.6032 14.2647 15.3512 14.2647Z" fill="white"/>
<path d="M14.0009 8.42362V7.7998H11.6294V10.7609H14.0009V10.1499H12.3387V9.56023H13.9539V8.95776H12.3387V8.42362H14.0009Z" fill="white"/>
<path d="M19.2268 14.4869C19.5559 14.3544 19.7312 14.0253 19.7353 13.7007C19.7353 12.9999 19.1328 12.9016 18.5773 12.9016H16.8937L16.8896 15.8628H17.5989L17.603 14.7818H18.3552C18.8252 14.7818 18.9876 14.8673 18.9876 15.3714L18.9833 15.8628H19.6927L19.6969 15.2731C19.6969 14.8928 19.6199 14.6279 19.2268 14.4869ZM18.4875 14.1792H17.603V13.5126H18.5004C18.7183 13.5126 18.9576 13.5554 18.9576 13.8288C18.9576 14.1236 18.7269 14.1792 18.4875 14.1792Z" fill="white"/>
<path d="M9.9245 7.79962L9.08276 9.80786L8.15548 7.79962H6.99753V10.6069L5.79687 7.79962H4.74989L3.48083 10.7608H4.24571L4.51915 10.107H5.99332L6.26676 10.7608H7.71103V8.44479L8.73653 10.7607H9.36041L10.3859 8.44479V10.7607H11.1039V7.79956L9.9245 7.79962ZM4.77124 9.49171L5.24986 8.3124L5.74129 9.49171H4.77124Z" fill="white"/>
<path d="M26.7216 13.5254H28.0078V12.9016H26.6019C26.055 12.9016 25.585 13.1836 25.585 13.7862C25.585 15.1962 27.4096 14.3332 27.4096 14.9569C27.4096 15.1748 27.2258 15.2304 27.0506 15.2304H25.6833L25.679 15.8628H27.0464C27.4054 15.8628 27.7984 15.7858 28.0078 15.4825V14.38C27.559 13.7905 26.3285 14.3245 26.3285 13.8033C26.3285 13.5554 26.525 13.5254 26.7216 13.5254Z" fill="white"/>
<path d="M24.2859 15.2261H22.9101L22.9058 15.8585H24.2817C24.9142 15.8585 25.4013 15.6191 25.4013 14.9185C25.4013 13.4998 23.5682 14.4399 23.5682 13.7945C23.5682 13.5553 23.7775 13.5212 23.9612 13.5212H25.2602V12.8972H23.8416C23.2947 12.8972 22.8375 13.1793 22.8375 13.7817C22.8375 15.1918 24.6619 14.316 24.6619 14.9526C24.6578 15.1834 24.4611 15.2261 24.2859 15.2261Z" fill="white"/>
<path d="M22.4828 13.5126V12.9016H20.1241L20.1198 15.8627H22.4785L22.4828 15.2517L20.8334 15.2389V14.6492H22.4529V14.0468H20.8377V13.5126H22.4828Z" fill="white"/>
<path d="M26.1147 7.80834V9.86362L24.8713 7.80834H23.7902V10.6028L22.5982 7.80834H21.5384L20.5343 10.137H20.2181C19.6498 10.137 19.5301 9.7909 19.5301 9.28672C19.5301 8.2697 20.201 8.4321 20.9445 8.44491V7.79541H20.2565C19.2524 7.79541 18.8038 8.30813 18.8038 9.3038C18.8038 10.2524 19.2396 10.7566 20.2138 10.7566H21.0343L21.3077 10.1028H22.7733L23.0553 10.7566H24.4954V8.53893L25.8285 10.7566H26.837V7.80828H26.1147V7.80834ZM21.5598 9.49183L22.0555 8.31252L22.534 9.49183H21.5598Z" fill="white"/>
<path d="M18.4576 7.7998H17.7355V10.7609H18.4576V7.7998Z" fill="white"/>
</g>
<defs>
<clipPath id="clip0_9_4796">
<rect width="30.797" height="24" fill="white" transform="translate(0.345825 0.21875)"/>
</clipPath>
</defs>
</svg>
