<svg width="39" height="25" viewBox="0 0 39 25" fill="none" xmlns="http://www.w3.org/2000/svg">
<path d="M33.718 22.5563H6.29176C5.1381 22.5563 4.20282 21.621 4.20282 20.4673V4.16707C4.20282 3.0133 5.1381 2.07812 6.29176 2.07812H33.718C34.8718 2.07812 35.807 3.0133 35.807 4.16707V20.4673C35.807 21.621 34.8718 22.5563 33.718 22.5563Z" fill="#98A2B3"/>
<path d="M33.718 22.5563H6.29176C5.1381 22.5563 4.20282 21.621 4.20282 20.4673V4.16707C4.20282 3.0133 5.1381 2.07812 6.29176 2.07812H33.718C34.8718 2.07812 35.807 3.0133 35.807 4.16707V20.4673C35.807 21.621 34.8718 22.5563 33.718 22.5563Z" stroke="#98A2B3" stroke-width="0.8" stroke-miterlimit="10" stroke-linecap="round" stroke-linejoin="round"/>
<path d="M7.10065 14.3962C7.10065 13.0012 7.10065 11.6218 7.10065 10.2379C7.11679 10.234 7.13149 10.227 7.1463 10.2271C7.60715 10.2304 8.06955 10.2119 8.52854 10.2432C9.26403 10.2935 9.88076 10.5925 10.2549 11.2547C10.9918 12.5586 10.1877 14.1886 8.7309 14.3613C8.36455 14.4045 7.9912 14.3876 7.62093 14.3956C7.45076 14.3992 7.28048 14.3962 7.10065 14.3962ZM7.9186 13.6817C8.07254 13.6817 8.21772 13.6894 8.36187 13.6801C8.68268 13.6593 8.98518 13.5831 9.23473 13.3617C9.80776 12.8532 9.84015 11.8876 9.30475 11.3354C8.91834 10.9369 8.42562 10.9282 7.9186 10.9401C7.9186 11.8562 7.9186 12.7639 7.9186 13.6817Z" fill="white"/>
<path d="M30.1705 10.2348C30.1861 10.2311 30.1951 10.2269 30.2043 10.2271C30.665 10.2302 31.1262 10.2259 31.5866 10.2417C31.7479 10.2472 31.9129 10.286 32.0675 10.3367C32.5923 10.5084 32.8839 10.9596 32.8492 11.5122C32.8293 11.8276 32.7494 12.1148 32.5125 12.3409C32.3664 12.4802 32.191 12.5637 31.9996 12.6188C31.9719 12.6267 31.9441 12.634 31.9042 12.6449C32.3391 13.2267 32.7693 13.8024 33.2132 14.3961C33.0147 14.3961 32.8389 14.3961 32.6632 14.3961C32.5406 14.3961 32.4179 14.3921 32.2958 14.3976C32.2287 14.4007 32.1918 14.3753 32.1559 14.3213C31.8168 13.8116 31.4745 13.3043 31.1345 12.7952C31.0998 12.7433 31.0676 12.699 30.9845 12.7322C30.9845 13.2784 30.9845 13.8308 30.9845 14.3895C30.7071 14.3895 30.4416 14.3895 30.1705 14.3895C30.1705 13.0045 30.1705 11.6229 30.1705 10.2348ZM30.9853 12.1465C31.2406 12.1467 31.4927 12.1629 31.7233 12.0352C31.9356 11.9174 32.0108 11.7241 32.0081 11.492C32.0055 11.2683 31.9207 11.0896 31.7156 10.9849C31.4848 10.8671 31.2364 10.8831 30.9853 10.8919C30.9853 11.3123 30.9853 11.7238 30.9853 12.1465Z" fill="white"/>
<path d="M27.332 10.231C28.0976 10.231 28.8568 10.231 29.6237 10.231C29.6237 10.4656 29.6237 10.6956 29.6237 10.9342C29.1341 10.9342 28.6454 10.9342 28.1489 10.9342C28.1489 11.2431 28.1489 11.5438 28.1489 11.8557C28.6205 11.8557 29.0895 11.8557 29.5657 11.8557C29.5657 12.0964 29.5657 12.3259 29.5657 12.5649C29.0926 12.5649 28.6235 12.5649 28.1479 12.5649C28.1479 12.9404 28.1479 13.3065 28.1479 13.6843C28.6407 13.6843 29.1316 13.6843 29.6267 13.6843C29.6267 13.924 29.6267 14.1518 29.6267 14.3879C28.8616 14.3879 28.1003 14.3879 27.332 14.3879C27.332 13.0055 27.332 11.6243 27.332 10.231Z" fill="white"/>
<path d="M14.7558 10.6271C14.6122 10.8146 14.4738 10.9953 14.332 11.1803C14.1763 11.0143 14.0118 10.8806 13.7883 10.8521C13.5647 10.8237 13.3553 10.8602 13.1892 11.0266C13.0099 11.2059 13.0307 11.4736 13.2452 11.6067C13.389 11.6957 13.5517 11.7543 13.7059 11.8266C13.9413 11.9374 14.1849 12.0339 14.4106 12.1622C14.7369 12.3476 14.8839 12.6478 14.8987 13.0201C14.9184 13.5127 14.7693 13.9297 14.3607 14.2275C14.0526 14.4523 13.6983 14.5151 13.3242 14.4931C12.7549 14.4598 12.3368 14.1771 12.0342 13.7237C12.2019 13.5443 12.3659 13.3691 12.5235 13.2005C12.6255 13.3181 12.7064 13.4366 12.8113 13.5273C13.0454 13.7298 13.3239 13.7959 13.6246 13.7212C13.93 13.6455 14.1135 13.349 14.0493 13.0586C14.0159 12.9074 13.9281 12.7921 13.7931 12.7245C13.6409 12.6484 13.4803 12.589 13.3233 12.5225C13.1543 12.4512 12.9813 12.3882 12.8174 12.3067C12.2924 12.0458 12.1316 11.5903 12.2811 11.0224C12.4062 10.5474 12.84 10.2149 13.3764 10.1674C13.8818 10.1225 14.3315 10.2681 14.7229 10.5918C14.7327 10.5997 14.7403 10.6103 14.7558 10.6271Z" fill="white"/>
<path d="M22.9631 10.2266C23.248 10.2266 23.5246 10.2242 23.801 10.2303C23.8268 10.2308 23.8616 10.2797 23.8751 10.3131C24.1625 11.0307 24.4471 11.7497 24.7326 12.4682C24.8028 12.6447 24.8736 12.821 24.9508 13.0142C24.9706 12.9704 24.9852 12.9405 24.9976 12.9099C25.3463 12.043 25.6953 11.1764 26.042 10.309C26.0653 10.2508 26.0912 10.2231 26.1596 10.2244C26.4205 10.2289 26.6815 10.2263 26.9577 10.2263C26.942 10.2676 26.9309 10.2996 26.9178 10.3305C26.3439 11.6933 25.7693 13.0556 25.1975 14.4192C25.1704 14.4841 25.1373 14.5063 25.0696 14.5024C24.9764 14.4969 24.8822 14.506 24.7893 14.4983C24.7565 14.4957 24.709 14.4691 24.6975 14.4413C24.1193 13.0524 23.5444 11.6622 22.9695 10.2719C22.966 10.2636 22.9667 10.2534 22.9631 10.2266Z" fill="white"/>
<path d="M18.3748 11.3337C18.2439 11.2356 18.1321 11.1369 18.0066 11.0605C17.5223 10.7656 16.9001 10.8346 16.4633 11.2234C15.8112 11.8039 15.8415 12.9369 16.5229 13.4617C17.0339 13.8552 17.7463 13.8351 18.234 13.4132C18.2749 13.3777 18.3157 13.3418 18.375 13.2902C18.375 13.3524 18.375 13.3955 18.375 13.4387C18.3749 13.6838 18.3737 13.9288 18.3761 14.1741C18.3766 14.2261 18.3605 14.2536 18.312 14.2768C17.3169 14.7516 16.0975 14.4277 15.5052 13.5124C14.6878 12.249 15.3346 10.5218 16.9033 10.1832C17.3883 10.0788 17.859 10.1308 18.3048 10.3579C18.3337 10.3726 18.3714 10.4082 18.3718 10.4347C18.3765 10.7305 18.3748 11.0267 18.3748 11.3337Z" fill="white"/>
<path d="M22.9478 12.3149C22.9664 13.4239 22.0535 14.3294 20.8965 14.3276C19.7317 14.3259 18.8373 13.4588 18.8438 12.2913C18.8503 11.189 19.7564 10.32 20.8973 10.313C22.0595 10.3059 22.9663 11.2191 22.9478 12.3149Z" fill="white"/>
<path d="M11.7119 14.3909C11.4413 14.3909 11.1784 14.3909 10.9088 14.3909C10.9088 13.0045 10.9088 11.6233 10.9088 10.2341C11.1756 10.2341 11.4405 10.2341 11.7119 10.2341C11.7119 11.6178 11.7119 12.9991 11.7119 14.3909Z" fill="white"/>
</svg>
