<svg width="25" height="25" viewBox="0 0 25 25" fill="none" xmlns="http://www.w3.org/2000/svg">
<g clip-path="url(#clip0_9_4792)">
<path d="M12.3459 6.87279C13.1555 7.50833 13.81 8.31974 14.2598 9.24559C14.7095 10.1714 14.9428 11.1875 14.9419 12.2168C14.9425 13.2458 14.7091 14.2614 14.2593 15.1869C13.8096 16.1124 13.1553 16.9235 12.3459 17.5588C11.5363 16.9233 10.8819 16.1121 10.4322 15.1864C9.98241 14.2608 9.74909 13.2449 9.74986 12.2158C9.74909 11.1866 9.98241 10.1708 10.4322 9.24514C10.8819 8.31948 11.5363 7.50823 12.3459 6.87279ZM11.4759 6.29079C10.6188 7.02236 9.93084 7.93131 9.45949 8.95481C8.98814 9.97832 8.74465 11.092 8.74586 12.2188C8.74469 13.3451 8.98801 14.4583 9.459 15.4814C9.92999 16.5045 10.6174 17.4132 11.4739 18.1448C10.4392 18.7256 9.27064 19.0255 8.0842 19.0147C6.89776 19.0038 5.73481 18.6827 4.71096 18.0831C3.68711 17.4836 2.83801 16.6265 2.24806 15.597C1.65812 14.5676 1.34787 13.4017 1.34818 12.2152C1.34848 11.0287 1.65931 9.86299 2.24977 8.83386C2.84024 7.80474 3.68977 6.94807 4.71393 6.34902C5.73809 5.74998 6.9012 5.42941 8.08764 5.4192C9.27408 5.40898 10.4415 5.70947 11.4759 6.29079ZM13.2179 18.1448C14.0743 17.4132 14.7617 16.5045 15.2327 15.4814C15.7037 14.4583 15.947 13.3451 15.9459 12.2188C15.9471 11.092 15.7036 9.97832 15.2322 8.95481C14.7609 7.93131 14.0729 7.02236 13.2159 6.29079C14.2502 5.70947 15.4186 5.40898 16.6051 5.4192C17.7915 5.42941 18.9546 5.74998 19.9788 6.34902C21.0029 6.94807 21.8525 7.80474 22.4429 8.83386C23.0334 9.86299 23.3442 11.0287 23.3445 12.2152C23.3448 13.4017 23.0346 14.5676 22.4447 15.597C21.8547 16.6265 21.0056 17.4836 19.9818 18.0831C18.9579 18.6827 17.795 19.0038 16.6085 19.0147C15.4221 19.0255 14.2535 18.7256 13.2189 18.1448H13.2179Z" fill="#98A2B3"/>
</g>
<defs>
<clipPath id="clip0_9_4792">
<rect width="24" height="24" fill="white" transform="translate(0.345856 0.21875)"/>
</clipPath>
</defs>
</svg>
