<svg width="41" height="40" viewBox="0 0 41 40" fill="none" xmlns="http://www.w3.org/2000/svg">
<rect x="0.5" width="40" height="40" rx="20" fill="#F5F5F5"/>
<path d="M10.5 16L11.804 17.043C12.2583 17.4064 12.7864 17.6662 13.3514 17.8046C13.9164 17.9429 14.5048 17.9563 15.0756 17.8438C15.6463 17.7314 16.1857 17.4958 16.6561 17.1535C17.1264 16.8113 17.5165 16.3705 17.799 15.862L20.5 11L23.201 15.862C23.4836 16.3704 23.8737 16.8111 24.3441 17.1533C24.8145 17.4955 25.3539 17.7309 25.9247 17.8433C26.4954 17.9556 27.0838 17.9421 27.6488 17.8037C28.2138 17.6653 28.7418 17.4054 29.196 17.042L30.5 16L28.746 24.77C28.6694 25.1527 28.5065 25.5129 28.2696 25.8231C28.0327 26.1333 27.7281 26.3854 27.379 26.56C25.2432 27.628 22.888 28.184 20.5 28.184C18.112 28.184 15.7568 27.628 13.621 26.56C13.2719 26.3854 12.9673 26.1333 12.7304 25.8231C12.4935 25.5129 12.3306 25.1527 12.254 24.77L10.5 16Z" stroke="#1D1E25" stroke-width="2" stroke-linecap="round" stroke-linejoin="round"/>
<path d="M16.5 23C19.096 24.333 21.904 24.333 24.5 23" stroke="#1D1E25" stroke-width="2" stroke-linecap="round" stroke-linejoin="round"/>
</svg>
