<svg width="52" height="18" viewBox="0 0 52 18" fill="none" xmlns="http://www.w3.org/2000/svg">
<path d="M20.8801 1.17969L18.2619 17.0902H22.3906L25.0088 1.17969H20.8801Z" fill="#98A2B3"/>
<path d="M44.7459 1.17969C43.7389 1.17969 43.034 1.48178 42.6312 2.48878L36.4885 17.1909H40.8186C40.8186 17.1909 41.5235 15.1769 41.7249 14.7741C42.2284 14.7741 46.3571 14.7741 46.9613 14.7741C47.062 15.3783 47.4648 17.1909 47.4648 17.1909H51.2913L47.9682 1.17969H44.7459ZM42.8326 11.451C43.1347 10.5447 44.4438 7.02025 44.4438 7.02025C44.4438 7.02025 44.7459 6.11395 44.9473 5.50976L45.2494 6.91955C45.2494 6.91955 46.055 10.7461 46.2564 11.5517H42.8326V11.451Z" fill="#98A2B3"/>
<path d="M33.2661 7.62454C31.8563 6.91964 30.95 6.41615 30.95 5.61055C30.95 4.90566 31.6549 4.20076 33.2661 4.20076C34.5752 4.20076 35.5822 4.50286 36.3878 4.80496L36.7906 5.00636L37.3948 1.58258C36.5892 1.28048 35.2801 0.877686 33.6689 0.877686C29.6409 0.877686 26.7207 3.09307 26.7207 6.11405C26.7207 8.43013 28.7347 9.73922 30.3458 10.4441C31.957 11.2497 32.4605 11.7532 32.4605 12.4581C32.4605 13.5658 31.1514 13.9686 29.943 13.9686C28.3319 13.9686 27.4256 13.7672 26.0158 13.163L25.5123 12.8609L24.9081 16.3854C25.9151 16.7882 27.627 17.191 29.5402 17.191C33.8703 17.191 36.6899 15.0763 36.6899 11.7532C36.7906 10.142 35.6829 8.73223 33.2661 7.62454Z" fill="#98A2B3"/>
<path d="M14.8382 1.17969L10.8102 12.0552L10.4074 9.83983L8.9976 2.48878C8.79621 1.48178 7.99061 1.17969 7.08432 1.17969H0.538862C0.438163 1.17969 0.438163 1.28039 0.337463 1.28039C0.337463 1.38109 0.337464 1.48178 0.438163 1.48178C1.44516 1.78388 2.35145 2.08598 3.15704 2.48878C4.06334 2.89157 4.66753 3.69717 4.96963 4.60346L8.29271 17.0902H12.6228L19.0675 1.17969H14.8382Z" fill="#98A2B3"/>
</svg>
